<svg width="120" height="35" viewBox="0 0 120 35" fill="none" xmlns="http://www.w3.org/2000/svg">
<path d="M62.9079 14.4285C62.9434 15.8477 60.9292 15.9005 60.9997 14.4985C61.1236 11.6597 61.1764 4.79047 61.1058 2.26727C61.0707 1.07567 62.9789 1.09327 62.9438 2.28487C62.9261 3.14367 62.9083 4.66807 62.8906 6.38527C62.9789 6.38527 63.085 6.38527 63.191 6.40287C64.1804 6.56047 66.4774 7.12127 67.4317 7.92727C68.3505 8.69807 67.3434 10.2229 66.3362 9.48687C65.5764 8.92607 63.8271 8.24287 62.8906 8.06767C62.8728 10.4861 62.8728 13.0093 62.9083 14.4285H62.9079Z" fill="#1888CF"/>
<path d="M76.4426 14.9717C74.9934 15.4097 74.3396 13.6749 75.7533 13.3069C79.2344 12.3781 81.4782 10.2577 82.2732 8.03254C82.4498 7.55934 82.3619 7.27894 81.6903 7.26174C79.8878 7.22654 76.6015 7.27934 74.7111 7.34934C73.4567 7.40174 73.2974 5.73734 74.6578 5.70214C76.9371 5.64974 79.9056 5.63214 82.3087 5.64974C84.0757 5.66734 84.9412 6.64854 84.2168 8.36574C82.9802 11.2921 80.8244 13.6397 76.4426 14.9717ZM82.0614 4.03734C80.4005 4.03734 77.9623 4.08974 76.0538 4.03734C74.8873 4.00214 74.8171 2.39014 76.1776 2.40774C77.8736 2.42534 80.3476 2.42534 82.132 2.40774C82.733 2.40774 83.0863 2.79334 83.0863 3.21374C83.0863 3.63414 82.7858 4.03734 82.0614 4.03734Z" fill="#1888CF"/>
<path d="M91.0908 13.2021C94.9959 11.9753 97.3102 8.7861 98.1056 6.2105C98.2472 5.7373 98.1939 5.2993 97.5401 5.2817C95.8086 5.2293 93.0167 5.3341 90.4729 5.4217C89.3065 5.4569 89.1831 3.7393 90.4374 3.6869C92.7695 3.5817 96.074 3.5641 98.3178 3.5993C99.7492 3.6169 100.756 4.6857 100.244 6.1225C99.007 9.6273 96.8512 13.0265 91.9035 14.9017C90.4015 15.4625 89.7477 13.6225 91.0908 13.2021ZM99.1829 2.6881C98.2823 2.3201 98.9889 1.2689 99.8012 1.5665C100.279 1.7417 101.162 2.1973 101.55 2.6181C102.24 3.3541 101.197 4.4229 100.614 3.7397C100.385 3.4593 99.5366 2.8461 99.1829 2.6881ZM100.774 1.1809C99.8726 0.830497 100.526 -0.221103 101.356 0.0416967C101.834 0.199297 102.735 0.637697 103.141 1.0405C103.848 1.7413 102.841 2.8453 102.24 2.1797C101.993 1.9169 101.127 1.3209 100.774 1.1809Z" fill="#1888CF"/>
<path d="M104.096 12.4661C106.71 11.3097 108.283 8.61088 108.124 5.26407C108.053 3.91486 109.909 4.00246 109.944 5.12406C110.068 8.43608 108.548 12.0809 105.085 13.9909C103.724 14.7445 102.753 13.0617 104.096 12.4661ZM113.372 13.0969C112.223 13.6577 110.969 13.2021 111.093 11.6949C111.216 10.1177 111.34 5.94727 111.34 4.91326C111.34 3.63406 113.125 3.65166 113.107 4.91326C113.089 5.59647 112.913 10.2229 112.895 10.8185C112.877 11.2041 113.089 11.2389 113.425 11.0465C114.944 10.1877 116.34 8.55808 117.365 6.66567C118.001 5.49167 119.592 6.45527 118.973 7.54167C117.754 9.71448 115.775 11.8877 113.372 13.0969Z" fill="#1888CF"/>
<path d="M61.8988 30.2961C61.7467 31.5513 61.443 32.7729 60.9029 33.8609C60.7343 34.1957 60.4472 34.3461 60.1773 34.3461C59.7889 34.3461 59.4344 34.0617 59.4344 33.6933C59.4344 33.5761 59.4513 33.4757 59.5187 33.3585C60.5315 31.4337 60.717 29.2581 60.717 27.0993C60.717 26.5469 60.7005 25.9949 60.6835 25.4425C60.5315 25.6601 60.2955 25.7605 60.0592 25.7605C59.6708 25.7605 59.2997 25.4929 59.2997 25.1245C59.2997 24.9737 59.3501 24.8233 59.4683 24.6557C60.4806 23.3169 61.3756 21.4761 61.7124 20.0365C61.7967 19.6681 62.1174 19.5009 62.4554 19.5009C62.8434 19.5009 63.2483 19.7353 63.2483 20.1369C63.2483 20.1869 63.2148 20.4381 63.0793 20.7897H64.0925C64.514 20.7897 65.5941 20.7897 65.5941 21.6769C65.5941 21.8109 65.5602 22.2293 64.8854 23.4677C65.0036 23.4677 65.1049 23.4845 65.2061 23.4845C66.2528 23.5181 66.6742 24.0033 66.6912 24.9237V26.8817C66.6912 30.1621 66.6912 30.8145 66.742 32.2373V32.3041C66.742 33.2917 66.1172 34.2453 64.4978 34.2453C63.721 34.2453 62.9281 34.1785 62.9281 33.4085C62.9281 33.0401 63.1644 32.6721 63.5524 32.6721C63.6033 32.6721 63.6541 32.6721 63.7045 32.6889C63.9747 32.7393 64.2445 32.8061 64.4978 32.8061C64.9701 32.8061 65.3247 32.6053 65.3247 31.8521C65.3247 31.8521 65.3416 31.2161 65.3416 30.2957H61.8992L61.8988 30.2961ZM61.7636 23.5349C61.8988 23.5181 62.0335 23.4849 62.1855 23.4849C62.4892 23.4849 62.9111 23.4681 63.3669 23.4681C63.5863 23.0497 63.8731 22.4805 63.8731 22.2797C63.8731 22.0453 63.6367 22.0453 63.3334 22.0453C63.0632 22.0453 62.7425 22.0453 62.5231 22.0621C62.4049 22.2965 62.2868 22.5473 62.1686 22.7817L61.7636 23.5349ZM63.0628 27.4177H62.067C62.067 27.9701 62.0331 28.5389 61.9992 29.1081H63.0628V27.4177ZM63.0628 24.6729H62.624C62.1682 24.6729 62.05 24.9073 62.05 25.2253C62.05 25.5601 62.067 25.9113 62.067 26.2797H63.0628V24.6729ZM65.3243 26.2797C65.3243 24.8237 65.2735 24.6729 64.7338 24.6565H64.2272V26.2797H65.3243ZM65.3412 27.4177H64.2272V29.1081H65.3412V27.4177ZM71.6691 31.2837L71.6861 33.6101C71.6861 34.1121 71.298 34.3801 70.8931 34.3801C70.5216 34.3801 70.1336 34.1289 70.1336 33.6101L70.1502 31.2837L67.6531 31.3005C67.1465 31.3005 66.9271 30.9993 66.9271 30.6813C66.9271 30.3465 67.1804 29.9953 67.6531 29.9953L70.1502 30.0121V28.5729H68.8337C68.3106 29.5437 68.0403 29.7445 67.6693 29.7445C67.2474 29.7445 66.8759 29.4265 66.8759 29.0749C66.8759 28.9577 66.9098 28.8405 66.9941 28.7233C67.6354 27.8361 67.9056 27.2841 68.1758 26.2797C68.2601 25.9785 68.513 25.8445 68.7998 25.8445C69.1882 25.8445 69.6101 26.0957 69.6101 26.4805C69.6101 26.6313 69.5593 26.7817 69.3741 27.3005H70.1336V26.3633C70.1336 25.8781 70.5216 25.6269 70.9096 25.6269C71.2976 25.6269 71.6861 25.8781 71.6861 26.3633L71.6691 27.3005L73.593 27.2837C74.0657 27.2837 74.3021 27.6017 74.3021 27.9365C74.3021 28.2545 74.0657 28.5893 73.593 28.5893L71.6691 28.5725V30.0117L74.1835 29.9949C74.6562 29.9949 74.8752 30.3129 74.8752 30.6477C74.8752 30.9657 74.6562 31.3005 74.1835 31.3005L71.6691 31.2837ZM70.9774 21.7109C70.589 24.6229 68.1589 25.7777 67.6358 25.7777C67.1804 25.7777 66.9102 25.3929 66.9102 25.0245C66.9102 24.7901 67.0284 24.5725 67.2647 24.4557C68.7498 23.7861 69.2899 22.7821 69.475 21.7109C68.9353 21.7109 68.3949 21.7277 67.8378 21.7445H67.8213C67.3655 21.7445 67.1292 21.4097 67.1292 21.0749C67.1292 20.7401 67.3825 20.3889 67.8552 20.3721C68.6651 20.3553 69.475 20.3553 70.3018 20.3553C71.1117 20.3553 71.9389 20.3553 72.7823 20.3721C73.8624 20.3889 74.3013 20.9577 74.3013 22.0121C74.3013 22.9661 74.1492 25.4597 71.8712 25.4597C71.4832 25.4597 71.0444 25.3929 70.5547 25.2421C70.2175 25.1417 70.0824 24.8573 70.0824 24.5725C70.0824 24.1709 70.3522 23.7525 70.7911 23.7525C70.9092 23.7525 71.0274 23.7861 71.1456 23.8361C71.4324 23.9701 71.6522 24.0201 71.8373 24.0201C72.6476 24.0201 72.7827 22.5809 72.7827 22.2293C72.7827 21.8445 72.6307 21.7105 72.2935 21.7105H70.977L70.9774 21.7109Z" fill="#1888CF"/>
<path d="M77.2727 26.5473C76.614 26.0117 75.7872 25.6269 75.1802 25.4093C74.8765 25.3089 74.7583 25.0913 74.7583 24.8569C74.7583 24.4721 75.0955 24.0537 75.5682 24.0537C76.1421 24.0537 77.6607 24.7233 78.1669 25.1081C78.4202 25.2921 78.5214 25.5601 78.5214 25.8109C78.5214 26.2797 78.1669 26.7313 77.745 26.7313C77.5933 26.7313 77.4243 26.6809 77.2727 26.5473ZM76.0066 34.0285C75.5513 34.0285 75.129 33.6605 75.129 33.2253C75.129 33.0581 75.1798 32.9073 75.2976 32.7401C76.2091 31.5185 76.9686 30.0121 77.4409 28.6901C77.559 28.3553 77.8458 28.2049 78.1326 28.2049C78.5375 28.2049 78.9429 28.4893 78.9429 28.9749C78.9429 29.3429 78.0144 31.8369 76.8339 33.5437C76.5975 33.8953 76.2934 34.0285 76.0066 34.0285ZM78.0826 22.8989C77.5594 22.2629 76.6649 21.7105 76.2599 21.4597C76.0405 21.3257 75.9389 21.1249 75.9389 20.9409C75.9389 20.5729 76.3273 20.1877 76.783 20.1877C77.0698 20.1877 79.4999 21.2921 79.4999 22.2797C79.4999 22.7485 79.078 23.1833 78.6392 23.1833C78.4532 23.1833 78.2512 23.0997 78.0826 22.8989ZM89.2876 28.1373L84.8493 28.1037C85.6765 30.0285 87.1273 31.5849 89.5239 32.4885C89.9289 32.6389 90.0975 32.9405 90.0975 33.2585C90.0975 33.7273 89.7264 34.1957 89.1529 34.1957C88.3426 34.1957 85.4741 32.5889 83.8369 29.3757C82.301 33.2921 78.6557 34.3965 78.3185 34.3965C77.8289 34.3965 77.4913 33.9613 77.4913 33.5429C77.4913 33.2585 77.6433 32.9737 78.0483 32.8401C80.9511 31.8361 82.1659 29.8945 82.6552 28.1037L79.5507 28.1373H79.5334C79.0441 28.1373 78.8078 27.7693 78.8078 27.4009C78.8078 27.0325 79.0611 26.6645 79.5507 26.6645H82.9254C82.9423 26.5809 82.9932 26.0621 82.9932 24.8237C82.9932 24.4053 83.0097 24.0037 83.0097 23.6189C82.1155 23.6189 81.2379 23.6189 80.6308 23.6357H80.6135C80.1242 23.6357 79.8879 23.2841 79.8879 22.9161C79.8879 22.5481 80.1412 22.1797 80.6308 22.1797C81.2548 22.1629 82.0986 22.1629 82.9932 22.1629C82.9932 21.5773 82.9758 21.0081 82.9758 20.4893V20.4725C82.9758 19.9201 83.3642 19.6693 83.7692 19.6693C84.1915 19.6693 84.6129 19.9369 84.6129 20.4557V22.1629C85.1869 22.1629 85.7269 22.1629 86.1997 22.1797C87.3302 22.2133 87.9715 22.8157 87.9884 23.6189C88.0054 24.1377 88.0223 24.7569 88.0223 25.3761C88.0223 25.8113 88.0054 26.2465 88.0054 26.6649H89.288C89.7607 26.6649 89.997 27.0333 89.997 27.4013C89.997 27.7693 89.7607 28.1377 89.3049 28.1377H89.288L89.2876 28.1373ZM86.436 26.6645C86.4525 26.1793 86.4525 25.6769 86.4525 25.1917C86.4525 23.9701 86.4525 23.6521 85.7269 23.6353C85.4232 23.6353 85.0352 23.6185 84.6129 23.6185V24.7397C84.6129 25.3089 84.5791 25.9613 84.4948 26.6645H86.4356H86.436Z" fill="#1888CF"/>
<path d="M94.9414 33.5764C93.5571 33.9948 92.9332 32.338 94.2831 31.9864C97.6074 31.0992 99.7507 29.0744 100.51 26.9488C100.679 26.4968 100.594 26.2292 99.9528 26.2124C98.2314 26.1788 95.093 26.2292 93.2873 26.296C92.0894 26.346 91.9374 24.7564 93.2365 24.7228C95.4137 24.6724 98.2491 24.656 100.544 24.6724C102.231 24.6892 103.058 25.6264 102.366 27.2664C101.185 30.0612 99.1264 32.304 94.9414 33.5756V33.5764ZM100.307 23.1332C98.721 23.1332 96.3922 23.1832 94.5699 23.1332C93.4559 23.0996 93.3881 21.56 94.6877 21.5768C96.3079 21.5936 98.6702 21.5936 100.375 21.5768C100.949 21.5768 101.286 21.9452 101.286 22.3468C101.286 22.7484 100.999 23.1332 100.307 23.1332Z" fill="#1888CF"/>
<path d="M106.417 31.4176C106.181 31.0828 106.164 30.5304 106.636 30.2292C107.446 29.7104 108.459 28.5892 108.881 27.8528C109.353 27.0328 110.737 27.6688 110.163 28.6392C109.741 29.3588 108.661 30.932 107.615 31.618C107.16 31.9192 106.653 31.7524 106.417 31.4176ZM107.902 26.1124C106.771 26.1624 106.619 24.6228 107.868 24.5728C109.201 24.5224 110.585 24.4724 111.952 24.4556C111.952 23.5684 111.935 22.8156 111.918 22.3468C111.884 21.1084 113.555 21.2256 113.538 22.28C113.521 22.7988 113.521 23.5688 113.504 24.4388C114.804 24.422 116.07 24.4388 117.318 24.4556C118.601 24.4724 118.5 26.0956 117.251 26.0288C116.002 25.962 114.754 25.962 113.488 25.962C113.471 27.3176 113.471 28.7568 113.521 29.9116C113.538 30.4472 113.538 30.7148 113.538 31.1837C113.538 32.5056 112.728 33.51 110.315 33.0916C108.813 32.824 109.472 31.1 110.501 31.4348C111.193 31.6524 111.935 31.7529 111.952 30.8324C111.969 29.6441 111.969 27.7364 111.952 25.9792C110.602 26.0128 109.252 26.0628 107.902 26.1132L107.902 26.1124ZM117.453 30.9825C116.93 30.1624 115.732 29.1416 114.99 28.7064C114.163 28.2212 114.973 26.9492 115.935 27.518C116.661 27.9364 118.145 28.924 118.82 29.978C119.108 30.43 118.905 30.9488 118.567 31.1828C118.23 31.4172 117.757 31.4504 117.453 30.982V30.9825ZM116.458 23.4848C116.306 23.1668 115.631 22.3468 115.327 22.1124C114.551 21.51 115.513 20.69 116.221 21.192C116.626 21.4764 117.386 22.1628 117.656 22.6648C118.128 23.552 116.846 24.3048 116.458 23.4848ZM118.601 22.6312C118.432 22.3132 117.757 21.51 117.437 21.2924C116.643 20.7232 117.555 19.8364 118.28 20.3216C118.702 20.5892 119.479 21.2756 119.765 21.7608C120.272 22.6312 119.006 23.4344 118.601 22.6312Z" fill="#1888CF"/>
<path d="M26.1913 11.4537C11.2773 15.4373 -0.0644761 21.4213 0.859157 24.8229C1.78279 28.2245 14.6209 27.7505 29.5349 23.7669C44.4494 19.7833 55.7907 13.7993 54.8671 10.3977C53.9435 6.9961 41.1054 7.4701 26.1913 11.4537ZM28.6694 21.1917C16.3282 24.4881 5.80806 25.2705 5.17523 22.9405C4.5424 20.6105 14.0353 16.0441 26.3764 12.7481C38.7176 9.4521 49.2378 8.6693 49.8714 11.0025C50.5042 13.3325 41.0106 17.8957 28.6694 21.1917Z" fill="#1888CF"/>
<path d="M26.6336 5.9288C29.0947 2.8978 33.1393 1.30812 37.2459 2.15146C43.0886 3.35133 46.8443 9.02155 45.6344 14.8159C44.9573 18.0587 43.108 20.4037 42.2569 21.4245C41.1772 22.7194 39.9604 23.8762 38.9416 24.7851C37.056 26.4672 34.4502 28.4867 33.5253 29.2464L26.6332 34.9081L19.7415 29.246C18.8183 28.4875 16.2108 26.4663 14.326 24.7851C13.3073 23.8763 12.0904 22.7197 11.0108 21.4249C10.1597 20.4042 8.31001 18.0589 7.63284 14.8159C6.42297 9.02157 10.1787 3.35135 16.0213 2.15146C20.1279 1.30811 24.1725 2.89782 26.6336 5.9288Z" fill="#FF7BAC"/>
<mask id="mask0_0_1" style="mask-type:luminance" maskUnits="userSpaceOnUse" x="0" y="7" width="56" height="21">
<path d="M0 7.3269V27.8937H55.7265V7.3269H0ZM45.1112 10.0609C40.6508 10.0609 33.6864 11.2101 26.4813 13.1345C19.6274 14.9649 13.481 17.2261 9.51504 19.3669C9.12864 18.7501 8.78621 18.1109 8.49299 17.4465C13.1946 15.1077 19.4197 12.8485 26.0868 11.0677C32.8378 9.2645 39.4145 8.1165 44.6958 7.8121C45.0604 8.5261 45.3476 9.2813 45.544 10.0657C45.4016 10.0633 45.2596 10.0605 45.1112 10.0605V10.0609Z" fill="white"/>
</mask>
<g mask="url(#mask0_0_1)">
<path d="M26.1913 11.4537C11.2773 15.4373 -0.0644761 21.4213 0.859157 24.8229C1.78279 28.2245 14.6209 27.7505 29.5349 23.7669C44.4494 19.7833 55.7907 13.7993 54.8671 10.3977C53.9435 6.9961 41.1054 7.4701 26.1913 11.4537ZM28.6694 21.1917C16.3282 24.4881 5.80806 25.2705 5.17523 22.9405C4.5424 20.6105 14.0353 16.0441 26.3764 12.7481C38.7176 9.4521 49.2378 8.6693 49.8714 11.0025C50.5042 13.3325 41.0106 17.8957 28.6694 21.1917Z" fill="#1888CF"/>
</g>
</svg>
