<svg width="225" height="49" viewBox="0 0 225 49" fill="none" xmlns="http://www.w3.org/2000/svg">
<path d="M81.7518 44.0383C79.9034 44.9502 77.4484 44.3974 77.5316 41.4682C77.6143 38.318 77.6695 31.6026 77.5864 29.7513C77.5037 27.6233 80.4277 27.8447 80.483 29.696C80.5383 31.6579 80.4551 37.8481 80.3725 39.9482C80.3446 40.7219 81.0621 40.9983 81.7244 40.6391C85.9725 38.4282 89.8068 34.5318 91.6826 31.5197C92.8414 29.668 95.3237 31.409 94.2202 33.1225C92.0133 36.577 86.4137 41.7166 81.7518 44.0383Z" fill="#1888CF"/>
<path d="M99.5244 45.0883C97.5106 45.8346 96.573 43.1264 98.6415 42.408C103.662 40.6671 108.021 36.2458 110.2 32.1283C110.448 31.6584 110.338 31.2164 109.731 31.2164C107.993 31.189 104.186 31.3272 101.759 31.3821C100.104 31.4374 99.9935 28.7846 101.759 28.7018C103.772 28.6189 107.827 28.5636 110.614 28.5636C113.096 28.5636 114.504 30.1389 113.427 32.0181C112.49 33.6483 111.497 35.2237 110.365 36.7157C112.655 38.0975 116.158 40.4186 117.428 42.1875C118.531 43.735 116.462 45.8905 115.165 44.2602C113.814 42.5746 110.972 40.06 108.71 38.7056C106.283 41.4138 103.303 43.6521 99.5244 45.0893V45.0883Z" fill="#1888CF"/>
<path d="M133.505 35.748C135.74 35.1124 137.974 34.4769 139.657 34.0344C141.809 33.4817 142.167 36.1346 140.457 36.5217C138.885 36.8808 136.622 37.4889 134.278 38.1798C135.16 40.9709 135.96 43.5684 136.485 45.1991C136.816 46.2217 136.237 46.9675 135.574 47.2164C134.912 47.4653 134.085 47.2164 133.836 46.2217C133.395 44.5082 132.623 41.8004 131.74 38.9261C129.285 39.6724 126.885 40.4181 125.202 40.9988C123.382 41.6069 122.554 39.0368 124.623 38.4013C126.223 37.904 128.54 37.1856 130.995 36.4668C130.692 35.4995 130.388 34.5323 130.112 33.6204C128.402 34.0903 126.719 34.5597 125.285 34.8914C123.299 35.3613 122.775 32.8467 124.595 32.4321C126.113 32.1004 127.74 31.6859 129.368 31.2439C128.816 29.4755 128.292 27.9555 127.961 26.9329C127.327 25.0537 130.141 24.6117 130.582 26.1317C130.857 27.1264 131.354 28.7018 131.906 30.5255C133.478 30.0836 134.968 29.5862 136.264 29.1717C138.057 28.5915 138.637 31.1062 136.954 31.631C135.712 32.0181 134.223 32.4875 132.65 32.93L133.505 35.748Z" fill="#1888CF"/>
<path d="M161.344 41.4956C163.054 41.551 162.916 43.9829 161.288 43.9275C157.233 43.7893 151.717 43.7619 148.075 44.0103C146.448 44.1211 146.282 41.6064 147.992 41.551C149.84 41.4956 152.544 41.4403 155.33 41.4403C155.661 40.1967 156.047 38.6218 156.185 37.7648C156.268 37.3502 156.158 37.1013 155.633 37.1013C154.475 37.1013 152.599 37.0739 150.778 37.1567C149.013 37.2395 148.985 34.8356 150.585 34.7802C153.013 34.6974 155.523 34.7528 156.902 34.8076C158.695 34.8905 159.275 36.1615 158.971 37.5987C158.695 38.8144 158.336 40.2515 157.978 41.4398C159.164 41.4398 160.295 41.4677 161.344 41.4956Z" fill="#1888CF"/>
<path d="M168.457 36.4663C167.464 36.4663 166.995 35.8028 166.995 35.1399C166.995 34.449 167.519 33.7306 168.457 33.7306H185.78C186.718 33.7306 187.187 34.4215 187.187 35.1124C187.187 35.7759 186.718 36.4663 185.78 36.4663H168.457Z" fill="#1888CF"/>
<path d="M214.002 30.1379L210.195 30.0551C210.306 31.2434 210.499 32.5698 210.858 33.9242C211.63 33.344 212.348 32.7085 213.12 31.9068C213.341 31.6859 213.589 31.5751 213.837 31.5751C214.499 31.5751 215.134 32.2106 215.134 32.9015C215.134 33.5096 214.719 34.228 211.52 36.0518C212.402 38.4557 213.671 40.6945 215.382 42.0484C215.74 42.3247 215.879 42.6839 215.879 43.0156C215.879 43.734 215.216 44.4249 214.444 44.4249C212.32 44.4249 208.458 37.2674 208.127 30.0272L207.41 29.9998C206.748 30.6632 206.058 31.2708 205.286 31.8515C207.741 33.786 209.148 38.4283 209.148 41.772C209.148 46.6911 205.92 47.2713 204.458 47.2713C202.637 47.2713 201.699 46.5804 201.699 45.6411C201.699 45.0055 202.168 44.3974 202.885 44.3974C203.051 44.3974 203.217 44.4528 203.41 44.5082C203.824 44.6464 204.21 44.7292 204.596 44.7292C205.837 44.7292 206.637 43.8447 206.637 41.33C206.637 40.7773 206.61 40.1972 206.527 39.6165C203.217 42.9328 199.713 44.5631 198.886 44.5631C198.141 44.5631 197.7 43.955 197.7 43.3748C197.7 42.9603 197.92 42.5737 198.389 42.4075C201.148 41.4403 203.52 39.7547 206.058 37.2121C205.92 36.6868 205.727 36.1894 205.534 35.72C203.023 37.9583 201.396 38.5939 200.927 38.5939C200.569 38.5939 200.32 38.4283 200.127 38.2068C199.658 39.6988 198.445 40.8043 196.899 40.8043C195.741 40.8043 194.996 40.279 194.996 39.4778C194.996 38.8697 195.41 38.2896 195.989 38.2896C196.099 38.2896 196.182 38.317 196.292 38.345C196.43 38.3724 196.54 38.4003 196.678 38.4003C197.064 38.4003 197.975 38.2068 197.975 36.383C197.975 35.1119 197.643 34.0893 196.899 33.0946C196.347 32.3763 196.155 31.7407 196.155 31.1047C196.155 30.4966 196.348 29.889 196.623 29.253C196.734 29.032 197.644 26.8765 197.644 26.3238C197.644 25.8818 197.258 25.7985 196.54 25.7985C195.52 25.7985 194.94 25.8539 194.94 26.7658C194.913 29.3358 194.885 32.6242 194.885 36.0787V46.3863C194.885 47.1875 194.223 47.602 193.589 47.602C192.899 47.602 192.237 47.1875 192.237 46.3863C192.237 41.357 192.265 32.265 192.375 26.4345C192.43 23.8091 193.892 23.8091 196.375 23.8091C196.899 23.8091 197.423 23.8091 197.892 23.8365C199.465 23.8919 200.265 24.7484 200.265 25.9367C200.265 26.6001 199.768 28.0094 198.747 30.137C198.554 30.5789 198.389 30.8832 198.389 31.2145C198.389 31.4634 198.499 31.7398 198.775 32.0989C199.823 33.3979 200.375 34.669 200.375 36.6309C203.079 35.2771 203.217 35.2217 204.568 34.0055C204.265 33.6184 203.934 33.2592 203.547 33.0108C203.272 33.1764 201.423 34.2265 200.816 34.2265C200.182 34.2265 199.823 33.6463 199.823 33.0936C199.823 32.7345 199.989 32.3474 200.403 32.2092C202.003 31.629 203.3 30.9102 204.43 30.0537L200.927 30.1365H200.899C200.182 30.1365 199.823 29.6112 199.823 29.059C199.823 28.5067 200.21 27.9535 200.927 27.9535H207.465C207.493 27.8707 207.493 27.7879 207.547 27.7046C208.016 26.7927 208.513 25.6873 209.092 24.1399C209.258 23.6979 209.672 23.5318 210.113 23.5318C210.857 23.5318 211.685 24.0017 211.685 24.6926C211.685 24.9689 211.271 25.7152 210.003 27.9535H214.003C214.72 27.9535 215.078 28.5062 215.078 29.059C215.078 29.5842 214.72 30.1365 214.03 30.1365H214.002V30.1379ZM204.237 27.5958C203.851 27.5958 203.52 27.4023 203.327 26.9877C202.941 26.1587 202.664 25.8823 202.168 25.1914C202.058 25.0258 202.003 24.8597 202.003 24.7215C202.003 24.1413 202.747 23.6714 203.41 23.6714C204.513 23.6714 205.672 25.6613 205.672 26.2415C205.672 26.9598 204.927 27.5958 204.237 27.5958Z" fill="#1888CF"/>
<path d="M80.4718 20.1042C80.5124 21.7648 78.1797 21.8266 78.2614 20.186C78.4047 16.8648 78.4658 8.82833 78.3841 5.87608C78.3431 4.48203 80.5534 4.50261 80.5123 5.89666C80.4918 6.90116 80.4717 8.68476 80.4512 10.6943C80.5534 10.6943 80.6762 10.6943 80.799 10.7148C81.945 10.8991 84.6054 11.5552 85.7108 12.4984C86.7752 13.4005 85.6086 15.1841 84.442 14.3232C83.5621 13.6671 81.5361 12.8674 80.4512 12.6626C80.4307 15.4918 80.4307 18.4436 80.4718 20.1042Z" fill="#1888CF"/>
<path d="M96.1484 20.7397C94.4702 21.2523 93.713 19.2227 95.3501 18.792C99.3815 17.7052 101.981 15.2248 102.902 12.6209C103.106 12.0672 103.004 11.7394 102.226 11.7188C100.139 11.6777 96.3323 11.7394 94.1424 11.8212C92.6897 11.8825 92.5053 9.93524 94.0813 9.89408C96.7211 9.83234 100.16 9.81225 102.943 9.83234C104.989 9.85292 105.992 11.001 105.153 13.01C103.721 16.4336 101.224 19.181 96.1489 20.7388L96.1484 20.7397ZM102.656 7.94682C100.732 7.94682 97.9083 8.00807 95.6984 7.94682C94.3474 7.90566 94.2657 6.01965 95.8417 6.04023C97.8065 6.06081 100.671 6.06081 102.738 6.04023C103.434 6.04023 103.843 6.49152 103.843 6.98348C103.843 7.47544 103.496 7.94682 102.656 7.94682Z" fill="#1888CF"/>
<path d="M113.114 18.669C117.637 17.2338 120.318 13.5029 121.239 10.4889C121.402 9.93524 121.341 9.4227 120.584 9.40261C118.578 9.34087 115.345 9.46386 112.398 9.56676C111.047 9.60792 110.904 7.59843 112.357 7.53718C115.058 7.41419 118.886 7.39361 121.484 7.43477C123.142 7.45535 124.309 8.70583 123.715 10.387C122.283 14.4873 119.786 18.4647 114.056 20.6584C112.316 21.3145 111.559 19.1619 113.114 18.67V18.669ZM122.487 6.36804C121.443 5.93733 122.262 4.70743 123.203 5.05582C123.756 5.26064 124.779 5.79376 125.229 6.28572C126.027 7.14665 124.82 8.39713 124.145 7.59794C123.879 7.27013 122.896 6.55228 122.487 6.36804ZM124.329 4.60502C123.285 4.19489 124.042 2.96499 125.004 3.27222C125.557 3.45695 126.601 3.96949 127.071 4.44087C127.89 5.26113 126.723 6.55228 126.027 5.77367C125.741 5.46595 124.738 4.76917 124.329 4.60502H124.329Z" fill="#1888CF"/>
<path d="M128.177 17.8081C131.206 16.4552 133.027 13.2976 132.843 9.38203C132.762 7.80325 134.91 7.90615 134.952 9.21788C135.095 13.0928 133.335 17.3568 129.324 19.5917C127.748 20.4732 126.622 18.5048 128.178 17.8081H128.177ZM138.921 18.546C137.591 19.2021 136.138 18.669 136.282 16.906C136.425 15.0606 136.568 10.1817 136.568 8.9719C136.568 7.47544 138.635 7.49602 138.615 8.9719C138.594 9.77158 138.39 15.1836 138.369 15.8809C138.349 16.3322 138.594 16.3729 138.983 16.1475C140.743 15.143 142.36 13.2364 143.547 11.0221C144.284 9.64859 146.125 10.7761 145.409 12.0471C143.997 14.5893 141.705 17.1314 138.922 18.546H138.921Z" fill="#1888CF"/>
<path d="M154.352 9.44328C153.288 9.60743 152.265 9.70984 151.139 9.68926C149.563 9.6481 149.482 7.51611 151.344 7.74151C152.183 7.84392 153.124 7.80276 154.516 7.59794C154.495 6.51112 154.495 5.54778 154.516 4.89167C154.557 3.31289 156.685 3.68186 156.603 4.87109C156.542 5.60903 156.501 6.42929 156.481 7.24906C156.911 7.16723 157.381 7.04424 157.872 6.94134C159.223 6.63362 159.775 8.54021 157.995 8.82735C157.443 8.90918 156.931 9.01208 156.46 9.09391C156.46 9.85243 156.46 10.6109 156.481 11.3695C156.972 11.2259 157.483 11.0823 158.036 10.8981C159.55 10.4061 160.328 12.2921 158.507 12.8047C157.791 13.0095 157.136 13.1942 156.542 13.3378C156.583 14.0346 156.623 14.6701 156.685 15.265C156.746 15.8187 156.808 16.5566 156.849 17.2945C157.872 17.6841 158.752 18.2378 159.387 18.7503C160.758 19.8778 159.427 21.7438 158.138 20.5545C157.709 20.165 157.197 19.7754 156.645 19.4476C155.928 21.1901 153.431 22.564 150.914 21.313C148.97 20.3497 148.847 18.0536 151.078 17.1103C152.326 16.5772 153.698 16.536 154.987 16.7619C154.966 16.3312 154.926 15.901 154.885 15.4291C154.844 14.9372 154.803 14.3629 154.762 13.7274C153.145 14.0351 152.06 14.0963 151.037 13.9528C149.584 13.7479 149.83 11.636 151.467 11.9844C152.06 12.1074 153.084 12.1074 154.66 11.7997C154.619 11.0206 154.578 10.2209 154.557 9.42172L154.353 9.4423L154.352 9.44328ZM151.712 18.5872C151.18 18.8126 151.078 19.4687 151.651 19.7558C152.899 20.3708 154.496 19.7558 154.802 18.6077C153.697 18.2594 152.613 18.1976 151.712 18.5872Z" fill="#1888CF"/>
<path d="M176.066 18.177C177.56 16.8447 177.499 14.897 176.332 14.1179C175.268 13.4005 173.058 13.2569 170.991 14.4663C170.172 14.9376 169.742 15.3066 169.271 16.0039C168.535 17.0907 166.488 15.8809 167.757 14.6304C170.009 12.3955 171.666 10.8172 173.938 8.00856C174.163 7.72142 173.958 7.80374 173.794 7.88557C173.222 8.19329 171.871 8.60293 170.356 8.93123C168.739 9.27962 168.433 7.25004 169.824 7.08589C171.195 6.92174 173.16 6.42978 174.327 6.08139C175.964 5.61001 177.314 7.06531 176.291 8.21338C175.636 8.95132 174.818 9.751 173.999 10.5095C173.181 11.268 172.362 12.006 171.625 12.7238C173.426 11.7605 175.861 11.7605 177.376 12.6626C180.322 14.4256 179.361 18.034 177.212 19.5922C175.186 21.0479 171.993 21.1298 170.438 20.1047C168.269 18.6901 169.231 16.1479 171.646 16.0661C173.283 16.0049 174.818 16.9888 174.879 18.8336C175.268 18.7518 175.698 18.5053 176.066 18.177ZM171.707 17.5621C170.807 17.6439 170.766 18.4848 171.421 18.8331C171.891 19.0791 172.567 19.161 173.14 19.1409C173.161 18.1976 172.608 17.4803 171.707 17.5621Z" fill="#1888CF"/>
<path d="M185.91 18.1564C185.174 17.1107 186.504 15.6961 187.609 16.8236C189.348 18.6072 192.664 18.4636 195.754 17.5821C197.453 17.1107 197.944 19.3245 196.286 19.8371C192.234 21.1081 187.322 20.1453 185.91 18.1564ZM188.203 9.79212C186.586 10.0998 186.32 7.9267 188.142 7.66014C190.086 7.37301 192.972 7.35243 194.67 7.72139C196.389 8.09036 195.939 10.2022 194.281 9.85337C192.378 9.44324 190.209 9.40257 188.203 9.79212ZM196.634 7.78264C196.409 7.43425 195.509 6.59342 195.12 6.36802C194.138 5.81433 195.079 4.68684 195.979 5.15822C196.491 5.42478 197.453 6.08088 197.842 6.614C198.538 7.55724 197.208 8.66415 196.634 7.78264ZM197.453 5.07639C196.45 4.54327 197.371 3.37463 198.292 3.80534C198.824 4.05132 199.786 4.70742 200.195 5.21996C200.912 6.14262 199.622 7.27011 199.029 6.40918C198.783 6.06079 197.842 5.2817 197.453 5.07639Z" fill="#1888CF"/>
<path d="M205.844 7.49602C204.779 6.1838 206.785 5.07689 207.604 6.24554C208.484 7.49602 209.405 9.32078 209.998 11.0226C211.104 10.2435 212.27 9.50551 213.6 8.76757C214.992 7.98847 216.056 9.9568 214.48 10.756C212.393 11.8222 210.285 13.011 208.668 14.3849C206.642 16.1073 206.58 17.6444 208.177 18.4235C209.61 19.1409 212.536 18.6077 213.764 18.1569C215.483 17.5008 216.097 19.8587 214.276 20.3713C212.659 20.8221 209.241 21.2322 207.215 20.2071C204.268 18.7106 204.391 15.3894 207.706 12.7444C207.911 12.5803 208.095 12.4166 208.3 12.273C207.768 10.6536 206.785 8.64409 205.844 7.49602H205.844Z" fill="#1888CF"/>
<path d="M36.0841 16.6693C17.9975 21.5492 4.2432 28.8796 5.3633 33.0466C6.48341 37.2135 22.0524 36.6329 40.139 31.753C58.2261 26.8731 71.9799 19.5427 70.8598 15.3757C69.7397 11.2088 54.1707 11.7894 36.0841 16.6693ZM39.0893 28.5984C24.1229 32.6365 11.3649 33.5949 10.5975 30.7406C9.83004 27.8864 21.3422 22.2926 36.3086 18.255C51.275 14.2169 64.033 13.2584 64.8015 16.1166C65.5699 18.9748 54.0558 24.5608 39.0893 28.5984Z" fill="#1888CF"/>
<path d="M36.6206 9.90137C39.6053 6.18839 44.5102 4.24103 49.4904 5.27412C56.5759 6.74396 61.1305 13.69 59.6633 20.7881C58.8421 24.7605 56.5994 27.6331 55.5673 28.8836C54.258 30.4698 52.7822 31.887 51.5468 33.0003C49.26 35.0609 46.0999 37.5348 44.9784 38.4654L36.6202 45.401L28.2624 38.4649C27.1429 37.5358 23.9807 35.0598 21.695 33.0003C20.4596 31.8871 18.9838 30.4702 17.6745 28.8841C16.6423 27.6337 14.3992 24.7608 13.578 20.7881C12.1108 13.69 16.6654 6.74399 23.7509 5.27412C28.731 4.24102 33.636 6.18841 36.6206 9.90137Z" fill="#FF7BAC"/>
<mask id="mask0_67_693" style="mask-type:luminance" maskUnits="userSpaceOnUse" x="4" y="11" width="68" height="26">
<path d="M4.32147 11.614V36.8083H71.9022V11.614H4.32147ZM59.0288 14.9631C53.6195 14.9631 45.1736 16.3709 36.4363 18.7283C28.1245 20.9705 20.6707 23.7405 15.8605 26.363C15.392 25.6074 14.9767 24.8239 14.6211 24.0105C20.3234 21.145 27.8726 18.3779 35.9575 16.1965C44.144 13.9875 52.1198 12.5817 58.525 12.2084C58.9671 13.083 59.3154 14.0081 59.5536 14.969C59.3814 14.9661 59.2092 14.9626 59.0288 14.9626V14.9631Z" fill="white"/>
</mask>
<g mask="url(#mask0_67_693)">
<path d="M36.0841 16.6693C17.9975 21.5492 4.2432 28.8796 5.3633 33.0466C6.48341 37.2135 22.0524 36.6329 40.139 31.753C58.2261 26.8731 71.9799 19.5427 70.8598 15.3757C69.7397 11.2088 54.1707 11.7894 36.0841 16.6693ZM39.0893 28.5984C24.1229 32.6365 11.3649 33.5949 10.5975 30.7406C9.83004 27.8864 21.3422 22.2926 36.3086 18.255C51.275 14.2169 64.033 13.2584 64.8015 16.1166C65.5699 18.9748 54.0558 24.5608 39.0893 28.5984Z" fill="#1888CF"/>
</g>
</svg>
