<svg width="189" height="45" viewBox="0 0 189 45" fill="none" xmlns="http://www.w3.org/2000/svg">
<path d="M71.6135 32.5899C71.6627 34.605 68.8469 34.6797 68.9457 32.6894C69.1186 28.6592 69.1927 18.9072 69.094 15.3252C69.0444 13.6337 71.7118 13.6584 71.6627 15.35C71.6377 16.569 71.6135 18.7331 71.5885 21.1712C71.7118 21.1712 71.8602 21.1712 72.0081 21.1959C73.3918 21.42 76.6026 22.2161 77.9368 23.3604C79.2209 24.4548 77.8135 26.6193 76.4051 25.5744C75.3431 24.7784 72.8972 23.8082 71.5885 23.5593C71.5635 26.9924 71.5635 30.5748 71.6135 32.5899Z" fill="#1888CF"/>
<path d="M87.5726 33.3608C85.5472 33.9827 84.6335 31.5198 86.6093 30.9974C91.4755 29.6789 94.6125 26.6688 95.7237 23.5094C95.9708 22.8375 95.847 22.4397 94.9087 22.415C92.3892 22.365 87.7951 22.4397 85.1518 22.5392C83.3981 22.6139 83.176 20.2505 85.0776 20.2005C88.2643 20.1258 92.4138 20.1011 95.7733 20.1258C98.2433 20.1506 99.4537 21.5438 98.4412 23.9819C96.7121 28.1363 93.6983 31.4699 87.5726 33.3608ZM95.4275 17.8376C93.1059 17.8376 89.6967 17.9123 87.0293 17.8376C85.3989 17.7876 85.3001 15.4989 87.2022 15.5241C89.5734 15.5489 93.0317 15.5489 95.5262 15.5241C96.3662 15.5241 96.86 16.0713 96.86 16.6685C96.86 17.2656 96.4404 17.8376 95.4275 17.8376Z" fill="#1888CF"/>
<path d="M105.583 30.8484C111.041 29.1069 114.277 24.5795 115.389 20.9223C115.586 20.2505 115.512 19.6286 114.598 19.6038C112.177 19.5291 108.275 19.6785 104.718 19.8027C103.088 19.8522 102.915 17.4146 104.669 17.3399C107.929 17.1905 112.548 17.1657 115.685 17.2157C117.686 17.2404 119.094 18.7578 118.377 20.7981C116.648 25.7738 113.635 30.5996 106.718 33.2618C104.619 34.0578 103.705 31.4456 105.582 30.8489L105.583 30.8484ZM116.895 15.9219C115.636 15.3995 116.624 13.9068 117.76 14.3298C118.427 14.5787 119.662 15.2253 120.206 15.8225C121.169 16.8674 119.712 18.3848 118.896 17.4146C118.575 17.0163 117.39 16.146 116.895 15.9219ZM119.119 13.7826C117.859 13.2849 118.773 11.7923 119.934 12.1658C120.6 12.3899 121.86 13.0118 122.428 13.5837C123.417 14.5787 122.009 16.146 121.169 15.2006C120.823 14.8275 119.613 13.9815 119.119 13.7826Z" fill="#1888CF"/>
<path d="M120.8 29.8035C124.456 28.1615 126.655 24.3306 126.432 19.579C126.333 17.6634 128.927 17.7881 128.976 19.3802C129.149 24.0818 127.025 29.2563 122.183 31.968C120.281 33.0377 118.923 30.6495 120.8 29.8035H120.8ZM133.769 30.699C132.163 31.4951 130.409 30.8484 130.582 28.7087C130.755 26.4699 130.928 20.5488 130.928 19.0814C130.928 17.2652 133.422 17.2904 133.398 19.0814C133.373 20.0516 133.126 26.6193 133.101 27.4649C133.077 28.0121 133.373 28.062 133.842 27.7884C135.966 26.5693 137.918 24.2559 139.35 21.569C140.239 19.9022 142.463 21.2706 141.598 22.8128C139.894 25.8975 137.127 28.9823 133.768 30.699H133.769Z" fill="#1888CF"/>
<path d="M150.322 33.3608C148.296 33.9827 147.383 31.5198 149.358 30.9974C154.224 29.6789 157.362 26.6688 158.473 23.5094C158.72 22.8375 158.596 22.4397 157.658 22.415C155.138 22.365 150.544 22.4397 147.901 22.5392C146.147 22.6139 145.925 20.2505 147.827 20.2005C151.013 20.1258 155.163 20.1011 158.522 20.1258C160.992 20.1506 162.203 21.5438 161.19 23.9819C159.461 28.1363 156.448 31.4699 150.322 33.3608H150.322ZM158.177 17.8376C155.855 17.8376 152.446 17.9123 149.778 17.8376C148.148 17.7876 148.049 15.4989 149.951 15.5241C152.322 15.5489 155.781 15.5489 158.275 15.5241C159.115 15.5241 159.609 16.0713 159.609 16.6685C159.609 17.2656 159.189 17.8376 158.177 17.8376Z" fill="#1888CF"/>
<path d="M166.627 30.1518C166.281 29.6541 166.257 28.8333 166.948 28.3856C168.134 27.6143 169.616 25.9475 170.234 24.8531C170.925 23.634 172.951 24.5795 172.111 26.0222C171.493 27.0918 169.912 29.4305 168.381 30.4502C167.714 30.8979 166.973 30.649 166.627 30.1518ZM168.801 22.2656C167.146 22.3403 166.923 20.0516 168.751 19.9769C170.703 19.9022 172.728 19.8275 174.729 19.8027C174.729 18.4842 174.704 17.3646 174.68 16.668C174.63 14.8271 177.076 15.0012 177.051 16.5686C177.026 17.3399 177.026 18.4842 177.002 19.7775C178.904 19.7528 180.756 19.7775 182.584 19.8023C184.461 19.827 184.313 22.2404 182.485 22.1409C180.657 22.0415 178.829 22.0415 176.977 22.0415C176.952 24.0566 176.952 26.1959 177.026 27.9126C177.051 28.7087 177.051 29.1069 177.051 29.803C177.051 31.7682 175.866 33.2609 172.333 32.639C170.134 32.2407 171.098 29.6784 172.604 30.1761C173.617 30.4997 174.704 30.6486 174.729 29.2806C174.753 27.5144 174.753 24.6785 174.729 22.0662C172.753 22.1162 170.776 22.1909 168.801 22.2656ZM182.781 29.5052C182.015 28.2861 180.261 26.7687 179.175 26.1221C177.965 25.4007 179.15 23.5098 180.558 24.3558C181.62 24.9777 183.794 26.4456 184.782 28.013C185.202 28.6848 184.905 29.4557 184.412 29.804C183.918 30.1523 183.226 30.2022 182.781 29.5056L182.781 29.5052ZM181.324 18.36C181.101 17.8875 180.113 16.6684 179.669 16.3201C178.533 15.4246 179.94 14.2056 180.978 14.9517C181.571 15.3747 182.682 16.3944 183.078 17.141C183.769 18.4595 181.892 19.5791 181.324 18.36ZM184.461 17.0915C184.214 16.619 183.225 15.4247 182.757 15.1011C181.595 14.2551 182.93 12.9366 183.992 13.6584C184.61 14.0567 185.746 15.0764 186.165 15.7977C186.906 17.0915 185.054 18.2853 184.461 17.0915H184.461Z" fill="#1888CF"/>
<path d="M29.3874 15.3085C12.8657 19.7901 0.301478 26.5221 1.32467 30.3489C2.34786 34.1757 16.5698 33.6425 33.0914 29.1609C49.6135 24.6793 62.1773 17.9473 61.1541 14.1205C60.1309 10.2937 45.909 10.827 29.3874 15.3085ZM32.1326 26.2638C18.4611 29.9722 6.80701 30.8524 6.10597 28.2312C5.40493 25.6099 15.921 20.4727 29.5925 16.7647C43.2639 13.0567 54.918 12.1761 55.62 14.8009C56.321 17.4222 45.804 22.5558 32.1326 26.2638Z" fill="#1888CF"/>
<path d="M29.8775 9.09309C32.6039 5.68321 37.0845 3.89482 41.6337 4.84358C48.1062 6.19344 52.2667 12.5724 50.9264 19.0911C50.1763 22.7392 48.1277 25.3774 47.1848 26.5258C45.9888 27.9825 44.6407 29.2839 43.5122 30.3064C41.4233 32.1988 38.5366 34.4707 37.5121 35.3254L29.8771 41.6948L22.2425 35.3249C21.2198 34.4716 18.3312 32.1978 16.2433 30.3064C15.1148 29.284 13.7667 27.9829 12.5707 26.5262C11.6278 25.3779 9.57881 22.7395 8.82865 19.0911C7.48837 12.5725 11.6489 6.19346 18.1213 4.84358C22.6706 3.89481 27.1511 5.68324 29.8775 9.09309Z" fill="#FF7BAC"/>
<mask id="mask0_129_345" style="mask-type:luminance" maskUnits="userSpaceOnUse" x="0" y="10" width="63" height="24">
<path d="M0.373047 10.6659V33.8035H62.1063V10.6659H0.373047ZM50.3468 13.7416C45.4055 13.7416 37.6905 15.0345 29.7087 17.1994C22.1161 19.2586 15.3072 21.8025 10.9137 24.2109C10.4857 23.517 10.1063 22.7979 9.78149 22.0504C14.9899 19.4193 21.886 16.8777 29.2717 14.8743C36.7504 12.8457 44.0361 11.5542 49.8866 11.2117C50.2905 12.015 50.6086 12.8646 50.8262 13.747C50.6685 13.7443 50.5112 13.7412 50.3468 13.7412V13.7416Z" fill="white"/>
</mask>
<g mask="url(#mask0_129_345)">
<path d="M29.3874 15.3085C12.8657 19.7901 0.301478 26.5221 1.32467 30.3489C2.34786 34.1757 16.5698 33.6425 33.0914 29.1609C49.6135 24.6793 62.1773 17.9473 61.1541 14.1205C60.1309 10.2937 45.909 10.827 29.3874 15.3085ZM32.1326 26.2638C18.4611 29.9722 6.80701 30.8524 6.10597 28.2312C5.40493 25.6099 15.921 20.4727 29.5925 16.7647C43.2639 13.0567 54.918 12.1761 55.62 14.8009C56.321 17.4222 45.804 22.5558 32.1326 26.2638Z" fill="#1888CF"/>
</g>
</svg>
