<svg width="28" height="28" viewBox="0 0 28 28" fill="none" xmlns="http://www.w3.org/2000/svg">
<path fill-rule="evenodd" clip-rule="evenodd" d="M16.5979 2.91192C16.5979 2.83469 16.5672 2.76063 16.5126 2.70602C16.458 2.65141 16.384 2.62073 16.3067 2.62073H8.15332C7.3038 2.62073 6.48907 2.9582 5.88837 3.5589C5.28767 4.1596 4.9502 4.97433 4.9502 5.82385V22.1307C4.9502 22.9802 5.28767 23.7949 5.88837 24.3956C6.48907 24.9963 7.3038 25.3338 8.15332 25.3338H19.801C20.6506 25.3338 21.4653 24.9963 22.066 24.3956C22.6667 23.7949 23.0042 22.9802 23.0042 22.1307V10.6542C23.0042 10.5769 22.9735 10.5029 22.9189 10.4483C22.8643 10.3937 22.7902 10.363 22.713 10.363H17.4715C17.2398 10.363 17.0176 10.2709 16.8538 10.1071C16.69 9.94328 16.5979 9.72108 16.5979 9.48939V2.91192ZM17.4715 14.2685C17.7032 14.2685 17.9254 14.3605 18.0892 14.5243C18.253 14.6881 18.3451 14.9103 18.3451 15.142C18.3451 15.3737 18.253 15.5959 18.0892 15.7597C17.9254 15.9236 17.7032 16.0156 17.4715 16.0156H10.4829C10.2512 16.0156 10.029 15.9236 9.86515 15.7597C9.70132 15.5959 9.60929 15.3737 9.60929 15.142C9.60929 14.9103 9.70132 14.6881 9.86515 14.5243C10.029 14.3605 10.2512 14.2685 10.4829 14.2685H17.4715ZM17.4715 18.9275C17.7032 18.9275 17.9254 19.0196 18.0892 19.1834C18.253 19.3472 18.3451 19.5694 18.3451 19.8011C18.3451 20.0328 18.253 20.255 18.0892 20.4188C17.9254 20.5827 17.7032 20.6747 17.4715 20.6747H10.4829C10.2512 20.6747 10.029 20.5827 9.86515 20.4188C9.70132 20.255 9.60929 20.0328 9.60929 19.8011C9.60929 19.5694 9.70132 19.3472 9.86515 19.1834C10.029 19.0196 10.2512 18.9275 10.4829 18.9275H17.4715Z" fill="#1888CF"/>
<path d="M18.3452 3.28938C18.3452 3.07506 18.57 2.93878 18.7366 3.07273C18.8779 3.18688 19.0033 3.31966 19.1128 3.47108L22.6223 8.35963C22.7015 8.47145 22.6153 8.61588 22.4778 8.61588H18.6364C18.5592 8.61588 18.4851 8.5852 18.4305 8.53059C18.3759 8.47598 18.3452 8.40192 18.3452 8.32469V3.28938Z" fill="#1888CF"/>
</svg>
