<svg width="20" height="20" viewBox="0 0 20 20" fill="none" xmlns="http://www.w3.org/2000/svg">
<path d="M9.375 14.375V15C9.375 15.1658 9.30915 15.3247 9.19194 15.4419C9.07473 15.5592 8.91576 15.625 8.75 15.625H7.5V16.25C7.5 16.5815 7.3683 16.8995 7.13388 17.1339C6.89946 17.3683 6.58152 17.5 6.25 17.5H3.75C3.41848 17.5 3.10054 17.3683 2.86612 17.1339C2.6317 16.8995 2.5 16.5815 2.5 16.25V14.6337C2.50007 14.3023 2.63181 13.9844 2.86625 13.75L7.70375 8.9125C7.40713 7.9053 7.43512 6.83027 7.78374 5.83987C8.13236 4.84946 8.78392 3.99393 9.64603 3.3946C10.5081 2.79526 11.5371 2.48253 12.5869 2.50075C13.6367 2.51898 14.6541 2.86723 15.4949 3.49612C16.3357 4.12502 16.9572 5.00264 17.2712 6.00455C17.5852 7.00646 17.5759 8.08181 17.2445 9.07811C16.9131 10.0744 16.2765 10.9411 15.4249 11.5553C14.5733 12.1695 13.55 12.5 12.5 12.5H11.2487V13.75C11.2487 13.9158 11.1829 14.0747 11.0657 14.1919C10.9485 14.3092 10.7895 14.375 10.6237 14.375H9.375ZM13.75 7.5C14.0815 7.5 14.3995 7.3683 14.6339 7.13388C14.8683 6.89946 15 6.58152 15 6.25C15 5.91848 14.8683 5.60054 14.6339 5.36612C14.3995 5.1317 14.0815 5 13.75 5C13.4185 5 13.1005 5.1317 12.8661 5.36612C12.6317 5.60054 12.5 5.91848 12.5 6.25C12.5 6.58152 12.6317 6.89946 12.8661 7.13388C13.1005 7.3683 13.4185 7.5 13.75 7.5Z" fill="#1888CF"/>
</svg>
