<svg width="20" height="20" viewBox="0 0 20 20" fill="none" xmlns="http://www.w3.org/2000/svg">
<path d="M3.33332 16.6667C2.87499 16.6667 2.48277 16.5036 2.15666 16.1775C1.83055 15.8514 1.66721 15.4589 1.66666 15V4.99999C1.66666 4.54166 1.82999 4.14944 2.15666 3.82333C2.48332 3.49722 2.87555 3.33388 3.33332 3.33333H16.6667C17.125 3.33333 17.5175 3.49666 17.8442 3.82333C18.1708 4.14999 18.3339 4.54222 18.3333 4.99999V15C18.3333 15.4583 18.1703 15.8508 17.8442 16.1775C17.518 16.5042 17.1255 16.6672 16.6667 16.6667H3.33332ZM9.99999 10.8333L16.6667 6.66666V4.99999L9.99999 9.16666L3.33332 4.99999V6.66666L9.99999 10.8333Z" fill="#1888CF"/>
</svg>
