<svg width="28" height="28" viewBox="0 0 28 28" fill="none" xmlns="http://www.w3.org/2000/svg">
<path d="M13.6365 11.3636C14.1588 11.3636 14.6759 11.2607 15.1585 11.0609C15.641 10.861 16.0795 10.568 16.4488 10.1987C16.8181 9.82936 17.1111 9.39091 17.311 8.90837C17.5108 8.42582 17.6137 7.90863 17.6137 7.38633C17.6137 6.86403 17.5108 6.34684 17.311 5.86429C17.1111 5.38175 16.8181 4.9433 16.4488 4.57397C16.0795 4.20465 15.641 3.91169 15.1585 3.71181C14.6759 3.51193 14.1588 3.40906 13.6365 3.40906C12.5816 3.40906 11.57 3.82809 10.8241 4.57397C10.0782 5.31986 9.65918 6.33149 9.65918 7.38633C9.65918 8.44117 10.0782 9.4528 10.8241 10.1987C11.57 10.9446 12.5816 11.3636 13.6365 11.3636ZM3.40918 23.1818V23.8636H23.8637V23.1818C23.8637 20.6363 23.8637 19.3636 23.3683 18.3909C22.9325 17.5356 22.2372 16.8403 21.3819 16.4045C20.4092 15.9091 19.1365 15.9091 16.591 15.9091H10.6819C8.13645 15.9091 6.86373 15.9091 5.891 16.4045C5.03575 16.8403 4.34042 17.5356 3.90463 18.3909C3.40918 19.3636 3.40918 20.6363 3.40918 23.1818Z" fill="#1888CF" stroke="#1888CF" stroke-width="2.5" stroke-linecap="round" stroke-linejoin="round"/>
</svg>
